<?xml version="1.0" encoding="UTF-8"?>
<svg width="100pt" 
height="100pt" 
version="1.1" 
viewBox="0 0 100 100" 
xmlns="http://www.w3.org/2000/svg">
 <path d="m98.168 89.332-39.328-39.332 39.332-39.332c2.4414-2.4414 2.4414-6.3945 0-8.8398-2.4375-2.4414-6.3945-2.4414-8.8398 0l-39.332 39.332-39.332-39.328c-2.4375-2.4414-6.3945-2.4414-8.8398 0-2.4414 2.4375-2.4414 6.3945 0 8.8398l39.332 39.328-39.328 39.332c-2.4414 2.4414-2.4414 6.3945 0 8.8398 2.4414 2.4414 6.3945 2.4414 8.8398 0l39.328-39.332 39.332 39.332c2.4414 2.4414 6.3984 2.4414 8.8398 0 2.4375-2.4453 2.4375-6.3984-0.003906-8.8398z"/>
</svg>
